<svg xmlns="http://www.w3.org/2000/svg" viewBox="0 0 512 512">
  <defs>
    <linearGradient id="spacesuit" x1="0%" y1="0%" x2="100%" y2="100%">
      <stop offset="0%" stop-color="#f0f0f0" />
      <stop offset="100%" stop-color="#c8c8c8" />
    </linearGradient>
    <linearGradient id="visor" x1="0%" y1="0%" x2="100%" y2="100%">
      <stop offset="0%" stop-color="#40c4ff" stop-opacity="0.7" />
      <stop offset="100%" stop-color="#0091ea" stop-opacity="0.9" />
    </linearGradient>
  </defs>
  
  <!-- 宇航服主体 -->
  <path d="M256 100c-50 0-90 40-90 90v100c0 55 40 100 90 100s90-45 90-100V190c0-50-40-90-90-90z" fill="url(#spacesuit)"/>
  
  <!-- 头盔 -->
  <circle cx="256" cy="150" r="70" fill="url(#spacesuit)"/>
  
  <!-- 头盔玻璃罩 -->
  <path d="M256 110c-30 0-55 25-55 55s25 55 55 55 55-25 55-55-25-55-55-55z" fill="url(#visor)"/>
  
  <!-- 背包 -->
  <rect x="226" y="240" width="60" height="80" rx="10" fill="#e0e0e0"/>
  
  <!-- 左臂 -->
  <path d="M166 200c-20 0-40 15-40 40v40c0 22 18 40 40 40 5 0 10-5 10-10V210c0-5-5-10-10-10z" fill="url(#spacesuit)"/>
  
  <!-- 右臂 -->
  <path d="M346 200c20 0 40 15 40 40v40c0 22-18 40-40 40-5 0-10-5-10-10V210c0-5 5-10 10-10z" fill="url(#spacesuit)"/>
  
  <!-- 左腿 -->
  <path d="M226 320h-20c-11 0-20 9-20 20v60c0 11 9 20 20 20h20v-100z" fill="url(#spacesuit)"/>
  
  <!-- 右腿 -->
  <path d="M286 320h20c11 0 20 9 20 20v60c0 11-9 20-20 20h-20v-100z" fill="url(#spacesuit)"/>
  
  <!-- 反光装饰 -->
  <circle cx="266" cy="150" r="5" fill="white"/>
  <circle cx="246" cy="150" r="5" fill="white"/>
  <circle cx="256" cy="135" r="3" fill="white"/>
  <circle cx="256" cy="165" r="3" fill="white"/>
  
  <!-- 氧气管道 -->
  <path d="M226 260c-5 0-10-4-10-10s4-10 10-10h15" stroke="#c0c0c0" stroke-width="3" fill="none"/>
  <path d="M286 260c5 0 10-4 10-10s-4-10-10-10h-15" stroke="#c0c0c0" stroke-width="3" fill="none"/>
</svg> 